<svg width="200" height="200" viewBox="0 0 200 200" fill="none" xmlns="http://www.w3.org/2000/svg">
<rect width="200" height="200" fill="#C6A378"/>
<path d="M156.25 56.25C149.312 54.0625 141.687 53.125 134.375 53.125C122.187 53.125 109.063 55.625 100 62.5C90.9375 55.625 77.8125 53.125 65.625 53.125C53.4375 53.125 40.3125 55.625 31.25 62.5V154.062C31.25 155.625 32.8125 157.187 34.375 157.187C35 157.187 35.3125 156.875 35.9375 156.875C44.375 152.813 56.5625 150 65.625 150C77.8125 150 90.9375 152.5 100 159.375C108.438 154.062 123.75 150 134.375 150C144.687 150 155.313 151.875 164.062 156.562C164.688 156.875 165 156.875 165.625 156.875C167.188 156.875 168.75 155.313 168.75 153.75V62.5C165 59.6875 160.938 57.8125 156.25 56.25ZM156.25 140.625C149.375 138.438 141.875 137.5 134.375 137.5C123.75 137.5 108.438 141.562 100 146.875V75C108.438 69.6875 123.75 65.625 134.375 65.625C141.875 65.625 149.375 66.5625 156.25 68.75V140.625Z" fill="black"/>
<path d="M134.375 90.625C139.875 90.625 145.188 91.1875 150 92.25V82.75C145.062 81.8125 139.75 81.25 134.375 81.25C123.75 81.25 114.125 83.0625 106.25 86.4375V96.8125C113.312 92.8125 123.125 90.625 134.375 90.625ZM106.25 103.063V113.438C113.312 109.437 123.125 107.25 134.375 107.25C139.875 107.25 145.188 107.813 150 108.875V99.375C145.062 98.4375 139.75 97.875 134.375 97.875C123.75 97.875 114.125 99.75 106.25 103.063ZM134.375 114.563C123.75 114.563 114.125 116.375 106.25 119.75V130.125C113.312 126.125 123.125 123.938 134.375 123.938C139.875 123.938 145.188 124.5 150 125.563V116.063C145.062 115.063 139.75 114.563 134.375 114.563Z" fill="black"/>
</svg>
