<svg width="200" height="200" viewBox="0 0 200 200" fill="none" xmlns="http://www.w3.org/2000/svg">
<rect width="200" height="200" fill="#C6A378"/>
<path d="M150 37.5H50.0625C43.1875 37.5 37.5625 43.125 37.5625 50L37.5 162.5L62.5 137.5H150C156.875 137.5 162.5 131.875 162.5 125V50C162.5 43.125 156.875 37.5 150 37.5ZM100 62.5C106.875 62.5 112.5 68.125 112.5 75C112.5 81.875 106.875 87.5 100 87.5C93.125 87.5 87.5 81.875 87.5 75C87.5 68.125 93.125 62.5 100 62.5ZM125 112.5H75V108.938C75 103.875 78 99.375 82.625 97.375C88.1053 94.9832 94.0205 93.7486 100 93.7486C105.98 93.7486 111.895 94.9832 117.375 97.375C119.639 98.3428 121.569 99.9548 122.925 102.011C124.281 104.066 125.002 106.475 125 108.938V112.5Z" fill="black"/>
</svg>
